<svg width="600" height="600" viewBox="0 0 600 600" fill="none" xmlns="http://www.w3.org/2000/svg">
<rect width="600" height="600" rx="100" fill="#3E8ED0"/>
<path d="M406.668 193.332H380V326.664H406.668V193.332Z" fill="white"/>
<path d="M353.332 220H326.668V326.668H353.332V220Z" fill="white"/>
<path d="M140 140V246.668H166.668V166.668H433.332V353.332H286.668V380H460V140H140Z" fill="white"/>
<path d="M206.668 260C184.572 260 166.668 277.904 166.668 300C166.668 322.096 184.572 340 206.668 340C228.764 340 246.668 322.096 246.668 300C246.668 277.904 228.764 260 206.668 260ZM206.668 313.332C199.312 313.332 193.336 307.372 193.336 300C193.336 292.632 199.312 286.668 206.668 286.668C214.024 286.668 220 292.632 220 300C220 307.372 214.024 313.332 206.668 313.332Z" fill="white"/>
<path d="M300 246.668H273.332V326.668H300V246.668Z" fill="white"/>
<path d="M220 193.332H193.332V220H220V193.332Z" fill="white"/>
<path d="M300 193.332H246.668V220H300V193.332Z" fill="white"/>
<path d="M260 406.668V380C260 365.272 248.06 353.332 233.332 353.332H180C165.272 353.332 153.332 365.272 153.332 380V406.668H140L153.332 460H180.824L174.152 433.332H239.176L232.504 460H260L273.332 406.668H260ZM180 406.668V380H233.332V406.668H180Z" fill="white"/>
</svg>
