<svg width="1949" height="600" viewBox="0 0 1949 600" fill="none" xmlns="http://www.w3.org/2000/svg">
<rect width="600" height="600" rx="100" fill="white"/>
<path d="M702.8 370V228H754.4C769.867 228 782.8 231.2 793.2 237.6C803.6 243.867 811.4 252.4 816.6 263.2C821.8 273.867 824.4 285.733 824.4 298.8C824.4 313.2 821.533 325.733 815.8 336.4C810.067 347.067 801.933 355.333 791.4 361.2C781 367.067 768.667 370 754.4 370H702.8ZM796.6 298.8C796.6 289.6 794.933 281.533 791.6 274.6C788.267 267.533 783.467 262.067 777.2 258.2C770.933 254.2 763.333 252.2 754.4 252.2H730.4V345.8H754.4C763.467 345.8 771.133 343.8 777.4 339.8C783.667 335.667 788.4 330.067 791.6 323C794.933 315.8 796.6 307.733 796.6 298.8ZM842.973 370V265.2H869.773V370H842.973ZM842.973 250.6V224H869.773V250.6H842.973ZM934.95 370.6C928.017 370.6 921.617 369.267 915.75 366.6C910.017 363.8 905.017 359.933 900.75 355C896.617 350.067 893.417 344.4 891.15 338C888.883 331.6 887.75 324.8 887.75 317.6C887.75 310 888.95 302.933 891.35 296.4C893.75 289.867 897.083 284.133 901.35 279.2C905.75 274.133 910.883 270.267 916.75 267.6C922.75 264.8 929.35 263.4 936.55 263.4C944.683 263.4 951.817 265.267 957.95 269C964.083 272.6 969.15 277.467 973.15 283.6V265.2H996.55V365C996.55 375.4 994.017 384.267 988.95 391.6C984.017 399.067 977.15 404.733 968.35 408.6C959.55 412.6 949.55 414.6 938.35 414.6C927.017 414.6 917.417 412.667 909.55 408.8C901.683 405.067 894.95 399.733 889.35 392.8L903.95 378.6C907.95 383.533 912.95 387.4 918.95 390.2C925.083 393 931.55 394.4 938.35 394.4C944.083 394.4 949.283 393.333 953.95 391.2C958.75 389.2 962.55 386 965.35 381.6C968.283 377.333 969.75 371.8 969.75 365V351.8C966.283 357.8 961.35 362.467 954.95 365.8C948.683 369 942.017 370.6 934.95 370.6ZM943.95 349.2C946.883 349.2 949.683 348.733 952.35 347.8C955.017 346.867 957.483 345.6 959.75 344C962.017 342.4 964.017 340.533 965.75 338.4C967.483 336.133 968.817 333.867 969.75 331.6V306.6C968.15 302.467 965.883 298.867 962.95 295.8C960.15 292.733 956.95 290.4 953.35 288.8C949.883 287.067 946.217 286.2 942.35 286.2C938.217 286.2 934.483 287.067 931.15 288.8C927.817 290.533 924.95 293 922.55 296.2C920.15 299.267 918.283 302.733 916.95 306.6C915.75 310.333 915.15 314.267 915.15 318.4C915.15 322.667 915.883 326.667 917.35 330.4C918.817 334.133 920.817 337.4 923.35 340.2C926.017 343 929.083 345.2 932.55 346.8C936.15 348.4 939.95 349.2 943.95 349.2ZM1121.91 345.8V370H1023.31V228H1120.11V252.2H1050.91V286.4H1110.71V308.8H1050.91V345.8H1121.91ZM1132.47 317.6C1132.47 307.467 1134.47 298.333 1138.47 290.2C1142.47 281.933 1148.01 275.4 1155.07 270.6C1162.14 265.8 1170.21 263.4 1179.27 263.4C1187.01 263.4 1193.94 265.333 1200.07 269.2C1206.34 272.933 1211.21 277.733 1214.67 283.6V224H1241.47V340C1241.47 342.8 1241.94 344.8 1242.87 346C1243.81 347.2 1245.41 347.933 1247.67 348.2V370C1243.01 370.933 1239.21 371.4 1236.27 371.4C1231.47 371.4 1227.47 370.2 1224.27 367.8C1221.21 365.4 1219.47 362.267 1219.07 358.4L1218.67 351.8C1214.81 358.333 1209.54 363.333 1202.87 366.8C1196.34 370.267 1189.47 372 1182.27 372C1175.07 372 1168.41 370.6 1162.27 367.8C1156.27 365 1151.01 361.133 1146.47 356.2C1142.07 351.267 1138.61 345.533 1136.07 339C1133.67 332.333 1132.47 325.2 1132.47 317.6ZM1214.67 331.6V306.6C1213.34 302.733 1211.21 299.267 1208.27 296.2C1205.34 293.133 1202.07 290.733 1198.47 289C1194.87 287.133 1191.27 286.2 1187.67 286.2C1183.54 286.2 1179.81 287.067 1176.47 288.8C1173.14 290.533 1170.21 292.867 1167.67 295.8C1165.27 298.733 1163.41 302.133 1162.07 306C1160.87 309.867 1160.27 313.933 1160.27 318.2C1160.27 322.467 1160.94 326.533 1162.27 330.4C1163.74 334.133 1165.81 337.4 1168.47 340.2C1171.14 343 1174.21 345.2 1177.67 346.8C1181.27 348.4 1185.14 349.2 1189.27 349.2C1191.81 349.2 1194.34 348.8 1196.87 348C1199.54 347.067 1202.01 345.867 1204.27 344.4C1206.67 342.8 1208.74 340.933 1210.47 338.8C1212.34 336.533 1213.74 334.133 1214.67 331.6ZM1266.78 330.8V265.2H1293.58V325C1293.58 333 1295.04 339.067 1297.98 343.2C1300.91 347.2 1305.24 349.2 1310.98 349.2C1314.44 349.2 1317.84 348.533 1321.18 347.2C1324.64 345.733 1327.78 343.6 1330.58 340.8C1333.51 338 1335.98 334.467 1337.98 330.2V265.2H1364.78V340C1364.78 342.8 1365.24 344.8 1366.18 346C1367.24 347.2 1368.91 347.933 1371.18 348.2V370C1368.51 370.4 1366.24 370.667 1364.38 370.8C1362.64 371.067 1361.04 371.2 1359.58 371.2C1354.78 371.2 1350.84 370.133 1347.78 368C1344.84 365.733 1343.11 362.667 1342.58 358.8L1341.98 350.4C1337.31 357.467 1331.31 362.867 1323.98 366.6C1316.64 370.2 1308.58 372 1299.78 372C1288.98 372 1280.78 368.533 1275.18 361.6C1269.58 354.533 1266.78 344.267 1266.78 330.8ZM1383.85 298C1383.85 289.333 1385.38 280.867 1388.45 272.6C1391.65 264.2 1396.25 256.6 1402.25 249.8C1408.25 242.867 1415.58 237.4 1424.25 233.4C1432.92 229.267 1442.78 227.2 1453.85 227.2C1466.92 227.2 1478.18 230.067 1487.65 235.8C1497.25 241.533 1504.38 249 1509.05 258.2L1487.85 272.8C1485.45 267.467 1482.32 263.267 1478.45 260.2C1474.58 257 1470.45 254.8 1466.05 253.6C1461.65 252.267 1457.32 251.6 1453.05 251.6C1446.12 251.6 1440.05 253 1434.85 255.8C1429.78 258.6 1425.52 262.267 1422.05 266.8C1418.58 271.333 1415.98 276.4 1414.25 282C1412.65 287.6 1411.85 293.2 1411.85 298.8C1411.85 305.067 1412.85 311.133 1414.85 317C1416.85 322.733 1419.65 327.867 1423.25 332.4C1426.98 336.8 1431.38 340.333 1436.45 343C1441.65 345.533 1447.32 346.8 1453.45 346.8C1457.85 346.8 1462.32 346.067 1466.85 344.6C1471.38 343.133 1475.58 340.8 1479.45 337.6C1483.32 334.4 1486.32 330.267 1488.45 325.2L1511.05 338.2C1508.25 345.267 1503.65 351.267 1497.25 356.2C1490.98 361.133 1483.92 364.867 1476.05 367.4C1468.18 369.933 1460.38 371.2 1452.65 371.2C1442.52 371.2 1433.25 369.133 1424.85 365C1416.45 360.733 1409.18 355.133 1403.05 348.2C1397.05 341.133 1392.32 333.267 1388.85 324.6C1385.52 315.8 1383.85 306.933 1383.85 298ZM1574.97 372C1566.43 372 1558.77 370.6 1551.97 367.8C1545.17 364.867 1539.37 360.867 1534.57 355.8C1529.9 350.733 1526.3 344.933 1523.77 338.4C1521.23 331.867 1519.97 325 1519.97 317.8C1519.97 310.467 1521.23 303.533 1523.77 297C1526.3 290.467 1529.9 284.667 1534.57 279.6C1539.37 274.533 1545.17 270.6 1551.97 267.8C1558.77 264.867 1566.43 263.4 1574.97 263.4C1583.5 263.4 1591.1 264.867 1597.77 267.8C1604.57 270.6 1610.37 274.533 1615.17 279.6C1619.97 284.667 1623.57 290.467 1625.97 297C1628.5 303.533 1629.77 310.467 1629.77 317.8C1629.77 325 1628.5 331.867 1625.97 338.4C1623.57 344.933 1619.97 350.733 1615.17 355.8C1610.5 360.867 1604.77 364.867 1597.97 367.8C1591.17 370.6 1583.5 372 1574.97 372ZM1547.57 317.8C1547.57 323.933 1548.77 329.4 1551.17 334.2C1553.57 338.867 1556.83 342.533 1560.97 345.2C1565.1 347.867 1569.77 349.2 1574.97 349.2C1580.03 349.2 1584.63 347.867 1588.77 345.2C1592.9 342.4 1596.17 338.667 1598.57 334C1601.1 329.2 1602.37 323.733 1602.37 317.6C1602.37 311.6 1601.1 306.2 1598.57 301.4C1596.17 296.6 1592.9 292.867 1588.77 290.2C1584.63 287.533 1580.03 286.2 1574.97 286.2C1569.77 286.2 1565.1 287.6 1560.97 290.4C1556.83 293.067 1553.57 296.8 1551.17 301.6C1548.77 306.267 1547.57 311.667 1547.57 317.8ZM1810.66 370H1783.86V311.2C1783.86 302.933 1782.39 296.867 1779.46 293C1776.66 289 1772.72 287 1767.66 287C1762.46 287 1757.46 289.067 1752.66 293.2C1747.99 297.2 1744.66 302.467 1742.66 309V370H1715.86V311.2C1715.86 302.8 1714.39 296.667 1711.46 292.8C1708.66 288.933 1704.72 287 1699.66 287C1694.46 287 1689.46 289 1684.66 293C1679.99 297 1676.66 302.267 1674.66 308.8V370H1647.86V265.2H1672.06V284.6C1676.06 277.8 1681.39 272.6 1688.06 269C1694.72 265.267 1702.39 263.4 1711.06 263.4C1719.72 263.4 1726.46 265.533 1731.26 269.8C1736.19 274.067 1739.32 279.333 1740.66 285.6C1744.92 278.4 1750.32 272.933 1756.86 269.2C1763.52 265.333 1770.99 263.4 1779.26 263.4C1785.79 263.4 1791.06 264.6 1795.06 267C1799.19 269.267 1802.39 272.4 1804.66 276.4C1806.92 280.267 1808.46 284.667 1809.26 289.6C1810.19 294.533 1810.66 299.533 1810.66 304.6V370ZM1896.79 372C1888.66 372 1881.46 370.2 1875.19 366.6C1869.06 362.867 1864.26 357.867 1860.79 351.6V412.6H1833.99V265.2H1857.39V283.2C1861.39 277.067 1866.46 272.267 1872.59 268.8C1878.72 265.2 1885.72 263.4 1893.59 263.4C1900.66 263.4 1907.12 264.8 1912.99 267.6C1918.99 270.4 1924.19 274.333 1928.59 279.4C1932.99 284.333 1936.39 290.067 1938.79 296.6C1941.32 303 1942.59 309.933 1942.59 317.4C1942.59 327.533 1940.59 336.733 1936.59 345C1932.72 353.267 1927.32 359.867 1920.39 364.8C1913.59 369.6 1905.72 372 1896.79 372ZM1887.79 349.2C1891.92 349.2 1895.66 348.333 1898.99 346.6C1902.32 344.867 1905.19 342.533 1907.59 339.6C1910.12 336.533 1911.99 333.133 1913.19 329.4C1914.52 325.533 1915.19 321.533 1915.19 317.4C1915.19 313 1914.46 308.933 1912.99 305.2C1911.66 301.467 1909.66 298.2 1906.99 295.4C1904.32 292.467 1901.19 290.2 1897.59 288.6C1894.12 287 1890.32 286.2 1886.19 286.2C1883.66 286.2 1881.06 286.667 1878.39 287.6C1875.86 288.4 1873.39 289.6 1870.99 291.2C1868.59 292.8 1866.46 294.667 1864.59 296.8C1862.86 298.933 1861.59 301.267 1860.79 303.8V328.4C1862.39 332.267 1864.52 335.8 1867.19 339C1869.99 342.2 1873.19 344.733 1876.79 346.6C1880.39 348.333 1884.06 349.2 1887.79 349.2Z" fill="white"/>
<path d="M406.668 193.332H380V326.664H406.668V193.332Z" fill="#204E74"/>
<path d="M353.332 220H326.668V326.668H353.332V220Z" fill="#204E74"/>
<path d="M140 140V246.668H166.668V166.668H433.332V353.332H286.668V380H460V140H140Z" fill="#204E74"/>
<path d="M206.668 260C184.572 260 166.668 277.904 166.668 300C166.668 322.096 184.572 340 206.668 340C228.764 340 246.668 322.096 246.668 300C246.668 277.904 228.764 260 206.668 260ZM206.668 313.332C199.312 313.332 193.336 307.372 193.336 300C193.336 292.632 199.312 286.668 206.668 286.668C214.024 286.668 220 292.632 220 300C220 307.372 214.024 313.332 206.668 313.332Z" fill="#204E74"/>
<path d="M300 246.668H273.332V326.668H300V246.668Z" fill="#204E74"/>
<path d="M220 193.332H193.332V220H220V193.332Z" fill="#204E74"/>
<path d="M300 193.332H246.668V220H300V193.332Z" fill="#204E74"/>
<path d="M260 406.668V380C260 365.272 248.06 353.332 233.332 353.332H180C165.272 353.332 153.332 365.272 153.332 380V406.668H140L153.332 460H180.824L174.152 433.332H239.176L232.504 460H260L273.332 406.668H260ZM180 406.668V380H233.332V406.668H180Z" fill="#204E74"/>
</svg>
